<svg width="129" height="34" viewBox="0 0 129 34" fill="none" xmlns="http://www.w3.org/2000/svg">
<path d="M19.7714 24.1638L29.9536 29.3827L27.2516 19.5465L36.2476 12.9284L24.4012 12.0749L19.7714 2.79837L15.1415 12.0749L3.29517 12.9284L12.2912 19.5465L9.58907 29.3827L19.7714 24.1638Z" fill="#FABC1C"/>
<path d="M64.257 24.1638L74.4392 29.3827L71.7371 19.5465L80.7331 12.9284L68.8868 12.0749L64.257 2.79837L59.6271 12.0749L47.7808 12.9284L56.7768 19.5465L54.0747 29.3827L64.257 24.1638Z" fill="#FABC1C"/>
<path d="M108.743 24.1638L118.925 29.3827L116.223 19.5465L125.219 12.9284L113.373 12.0749L108.743 2.79837L104.113 12.0749L92.2666 12.9284L101.263 19.5465L98.5605 29.3827L108.743 24.1638Z" fill="#FABC1C"/>
</svg>
