<svg width="173" height="34" viewBox="0 0 173 34" fill="none" xmlns="http://www.w3.org/2000/svg">
<path d="M64.2572 24.1638L74.4395 29.3827L71.7374 19.5465L80.7334 12.9284L68.887 12.0749L64.2572 2.79836L59.6274 12.0749L47.781 12.9284L56.777 19.5465L54.0749 29.3827L64.2572 24.1638Z" fill="#FABC1C"/>
<path d="M108.743 24.1638L118.925 29.3827L116.223 19.5465L125.219 12.9284L113.373 12.0749L108.743 2.79836L104.113 12.0749L92.2666 12.9284L101.263 19.5465L98.5605 29.3827L108.743 24.1638Z" fill="#FABC1C"/>
<path d="M153.229 24.1638L163.411 29.3827L160.709 19.5465L169.705 12.9284L157.858 12.0749L153.229 2.79836L148.599 12.0749L136.752 12.9284L145.748 19.5465L143.046 29.3827L153.229 24.1638Z" fill="#FABC1C"/>
<path d="M19.7714 24.1638L29.9536 29.3827L27.2516 19.5465L36.2476 12.9284L24.4012 12.0749L19.7714 2.79836L15.1415 12.0749L3.29517 12.9284L12.2912 19.5465L9.58907 29.3827L19.7714 24.1638Z" fill="#FABC1C"/>
</svg>
