<svg width="232" height="40" viewBox="0 0 232 40" fill="none" xmlns="http://www.w3.org/2000/svg">
<path d="M68.9429 28.7833L79.7137 35L76.8554 23.2833L86.3714 15.4L73.8403 14.3833L68.9429 3.33334L64.0454 14.3833L51.5143 15.4L61.0303 23.2833L58.172 35L68.9429 28.7833Z" fill="#FABC1C"/>
<path d="M116 28.7833L126.771 35L123.913 23.2833L133.429 15.4L120.897 14.3833L116 3.33334L111.103 14.3833L98.5714 15.4L108.087 23.2833L105.229 35L116 28.7833Z" fill="#FABC1C"/>
<path d="M163.057 28.7833L173.828 35L170.97 23.2833L180.486 15.4L167.955 14.3833L163.057 3.33334L158.16 14.3833L145.629 15.4L155.145 23.2833L152.286 35L163.057 28.7833Z" fill="#FABC1C"/>
<path d="M21.8857 28.7833L32.6566 35L29.7983 23.2833L39.3143 15.4L26.7832 14.3833L21.8857 3.33334L16.9883 14.3833L4.45715 15.4L13.9732 23.2833L11.1149 35L21.8857 28.7833Z" fill="#FABC1C"/>
<path d="M227.543 15.4L215.012 14.3666L210.114 3.33331L205.217 14.3833L192.686 15.4L202.202 23.2833L199.343 35L210.114 28.7833L220.885 35L218.044 23.2833L227.543 15.4ZM210.114 25.6666V10.1666L213.095 16.9L220.728 17.5333L214.942 22.3333L216.685 29.4666L210.114 25.6666Z" fill="#FABC1C"/>
</svg>
