<svg width="30" height="30" viewBox="0 0 30 30" fill="none" xmlns="http://www.w3.org/2000/svg">
<path d="M17.0268 10C15.8443 10 10.7678 10.1238 7.5 15.3719V10C7.5 6.69125 4.97695 4 1.875 4C0.839648 4 0 4.89563 0 6C0 7.10438 0.839648 8 1.875 8C2.90859 8 3.75 8.8975 3.75 10V26C3.75 28.2063 5.43164 30 7.5 30H17.8125C18.3305 30 18.75 29.5525 18.75 29V28C18.75 26.8956 17.9104 26 16.875 26H15L22.5 20V29C22.5 29.5525 22.9195 30 23.4375 30H25.3125C25.8305 30 26.25 29.5525 26.25 29V16.1162C25.6471 16.2831 25.026 16.4 24.375 16.4C20.7533 16.4 17.7234 13.6469 17.0268 10ZM26.25 4H22.5L18.75 0V8.4C18.75 11.7137 21.2684 14.4 24.375 14.4C27.4816 14.4 30 11.7137 30 8.4V0L26.25 4ZM22.0312 9C21.5133 9 21.0938 8.5525 21.0938 8C21.0938 7.4475 21.5133 7 22.0312 7C22.5492 7 22.9688 7.4475 22.9688 8C22.9688 8.5525 22.5492 9 22.0312 9ZM26.7188 9C26.2008 9 25.7812 8.5525 25.7812 8C25.7812 7.4475 26.2008 7 26.7188 7C27.2367 7 27.6562 7.4475 27.6562 8C27.6562 8.5525 27.2367 9 26.7188 9Z" fill="black"/>
</svg>
