<svg width="30" height="30" viewBox="0 0 30 30" fill="none" xmlns="http://www.w3.org/2000/svg">
<path d="M29.0625 3.99992H25.3125L24.893 3.10555C24.7373 2.77334 24.4979 2.49394 24.2017 2.29867C23.9055 2.10339 23.5642 1.99994 23.216 1.99992H20.0742L18.4758 0.294912C17.8846 -0.33509 16.875 0.111161 16.875 1.00179V10.3668L24.375 13.2237V10.9999H26.25C28.3213 10.9999 30 9.20931 30 6.99993V4.99993C30 4.44742 29.5805 3.99992 29.0625 3.99992ZM22.5 6.99993C21.982 6.99993 21.5625 6.55243 21.5625 5.99993C21.5625 5.44743 21.982 4.99993 22.5 4.99993C23.018 4.99993 23.4375 5.44743 23.4375 5.99993C23.4375 6.55243 23.018 6.99993 22.5 6.99993ZM5.625 11.9999C4.59141 11.9999 3.75 11.1024 3.75 9.99994C3.75 8.89556 2.91035 7.99994 1.875 7.99994C0.839648 7.99994 0 8.89556 0 9.99994C0 12.6037 1.57207 14.8031 3.75 15.6312V29C3.75 29.5525 4.16953 30 4.6875 30H8.4375C8.95547 30 9.375 29.5525 9.375 29V22H18.75V29C18.75 29.5525 19.1695 30 19.6875 30H23.4375C23.9555 30 24.375 29.5525 24.375 29V15.3468L15.5889 11.9999H5.625Z" fill="black"/>
</svg>
