<svg width="60" height="60" viewBox="0 0 60 60" fill="none" xmlns="http://www.w3.org/2000/svg">
<g filter="url(#filter0_i)">
<path d="M30.0006 25.7148C20.6948 25.7148 7.50082 42.1556 7.50082 52.5336C7.50082 57.2076 10.6426 60 15.9078 60C21.6311 60 25.4104 56.6411 30.0006 56.6411C34.6306 56.6411 38.4204 60 44.0934 60C49.3586 60 52.5003 57.2076 52.5003 52.5336C52.5003 42.1556 39.3063 25.7148 30.0006 25.7148ZM12.7414 24.026C11.5227 19.3855 7.76801 16.3801 4.35554 17.3123C0.943077 18.2444 -0.834639 22.7617 0.384098 27.4023C1.60284 32.0429 5.35748 35.0482 8.76995 34.116C12.1824 33.1839 13.9601 28.6666 12.7414 24.026ZM22.6694 21.243C26.2952 20.1529 28.1092 14.5547 26.7217 8.73965C25.3342 2.92456 21.2702 -0.904399 17.6445 0.185763C14.0187 1.27592 12.2047 6.87405 13.5922 12.6891C14.9796 18.5042 19.0448 22.3345 22.6694 21.243ZM55.6445 17.3136C52.232 16.3815 48.4785 19.3868 47.2586 24.0274C46.0399 28.6679 47.8176 33.1852 51.23 34.1174C54.6425 35.0495 58.396 32.0442 59.6159 27.4036C60.8346 22.7631 59.0569 18.2457 55.6445 17.3136ZM37.3318 21.243C40.9575 22.3332 45.0215 18.5042 46.409 12.6891C47.7965 6.87405 45.9824 1.27726 42.3567 0.185763C38.731 -0.905738 34.6669 2.92456 33.2795 8.73965C31.892 14.5547 33.706 20.1529 37.3318 21.243Z" fill="white"/>
</g>
<defs>
<filter id="filter0_i" x="0" y="0" width="60" height="64" filterUnits="userSpaceOnUse" color-interpolation-filters="sRGB">
<feFlood flood-opacity="0" result="BackgroundImageFix"/>
<feBlend mode="normal" in="SourceGraphic" in2="BackgroundImageFix" result="shape"/>
<feColorMatrix in="SourceAlpha" type="matrix" values="0 0 0 0 0 0 0 0 0 0 0 0 0 0 0 0 0 0 127 0" result="hardAlpha"/>
<feOffset dy="4"/>
<feGaussianBlur stdDeviation="2"/>
<feComposite in2="hardAlpha" operator="arithmetic" k2="-1" k3="1"/>
<feColorMatrix type="matrix" values="0 0 0 0 0 0 0 0 0 0 0 0 0 0 0 0 0 0 0.25 0"/>
<feBlend mode="normal" in2="shape" result="effect1_innerShadow"/>
</filter>
</defs>
</svg>
