<svg width="40" height="40" viewBox="0 0 40 40" fill="none" xmlns="http://www.w3.org/2000/svg">
<path d="M26.6072 20.0028C25.551 20.0028 24.5573 19.1992 24.0199 17.9135L20.0014 8.39593L15.9891 17.9135C15.4454 19.2081 14.4517 20.0117 13.3956 20.0117C13.1143 20.0117 12.8331 19.9581 12.5644 19.8421L4.00239 16.3421V32.2346C4.00239 33.547 4.62735 34.6899 5.5148 35.0024L19.0264 39.8326C19.6639 40.0558 20.3326 40.0558 20.9638 39.8326L34.488 35.0024C35.3754 34.6809 36.0004 33.5381 36.0004 32.2346V16.3421L27.4384 19.8331C27.1697 19.9492 26.8885 20.0028 26.6072 20.0028ZM39.8939 9.98518L36.6753 0.80685C36.4816 0.253294 36.0629 -0.0681265 35.6316 0.0122285L20.0014 2.86037L25.7323 16.4404C25.9698 17.0028 26.4447 17.2707 26.8885 17.0921L39.2564 12.0476C39.8751 11.7887 40.1751 10.8066 39.8939 9.98518V9.98518ZM3.32744 0.80685L0.108888 9.98518C-0.178593 10.8066 0.127637 11.7887 0.740099 12.0387L13.1081 17.0832C13.5518 17.2618 14.0268 16.9939 14.2642 16.4314L20.0014 2.86037L4.36487 0.0122285C3.93365 -0.0591982 3.52117 0.253294 3.32744 0.80685V0.80685Z" fill="white"/>
</svg>
