<svg width="225" height="200" viewBox="0 0 225 200" fill="none" xmlns="http://www.w3.org/2000/svg">
<path d="M149.666 100.014C143.725 100.014 138.135 95.9961 135.112 89.5677L112.508 41.9797L89.9389 89.5677C86.8805 96.0407 81.291 100.058 75.35 100.058C73.768 100.058 72.1861 99.7906 70.6745 99.2103L22.5135 81.7107V161.173C22.5135 167.735 26.0289 173.449 31.0207 175.012L107.024 199.163C110.609 200.279 114.371 200.279 117.922 199.163L193.995 175.012C198.987 173.405 202.502 167.691 202.502 161.173V81.7107L154.341 99.1656C152.829 99.746 151.248 100.014 149.666 100.014ZM224.403 49.9259L206.299 4.03425C205.209 1.26647 202.854 -0.340632 200.428 0.0611425L112.508 14.3018L144.744 82.2018C146.08 85.0142 148.752 86.3535 151.248 85.4606L220.817 60.2381C224.298 58.9435 225.985 54.0329 224.403 49.9259ZM18.7168 4.03425L0.612498 49.9259C-1.00459 54.0329 0.71796 58.9435 4.16306 60.1935L73.7329 85.416C76.2288 86.3088 78.9005 84.9696 80.2364 82.1572L112.508 14.3018L24.5524 0.0611425C22.1268 -0.295991 19.8066 1.26647 18.7168 4.03425Z" fill="white"/>
</svg>
