<svg width="41" height="41" viewBox="0 0 41 41" fill="none" xmlns="http://www.w3.org/2000/svg">
<path d="M12.0833 32.1667C9.88325 32.1667 8.10325 33.9667 8.10325 36.1667C8.10325 38.3667 9.88325 40.1667 12.0833 40.1667C14.2833 40.1667 16.0833 38.3667 16.0833 36.1667C16.0833 33.9667 14.2833 32.1667 12.0833 32.1667ZM0.083252 0.166656V4.16666H4.08325L11.2833 19.3467L8.58325 24.2467C8.26325 24.8067 8.08325 25.4667 8.08325 26.1667C8.08325 28.3667 9.88325 30.1667 12.0833 30.1667H36.0833V26.1667H12.9233C12.6433 26.1667 12.4233 25.9467 12.4233 25.6667L12.4833 25.4267L14.2833 22.1667H29.1833C30.6833 22.1667 32.0033 21.3467 32.6833 20.1067L39.8433 7.12666C40.0033 6.84666 40.0833 6.50666 40.0833 6.16666C40.0833 5.06666 39.1833 4.16666 38.0833 4.16666H8.50325L6.62325 0.166656H0.083252ZM32.0833 32.1667C29.8833 32.1667 28.1033 33.9667 28.1033 36.1667C28.1033 38.3667 29.8833 40.1667 32.0833 40.1667C34.2833 40.1667 36.0833 38.3667 36.0833 36.1667C36.0833 33.9667 34.2833 32.1667 32.0833 32.1667Z" fill="white"/>
</svg>
