<svg width="22" height="25" viewBox="0 0 22 25" fill="none" xmlns="http://www.w3.org/2000/svg">
<path d="M21.2143 1.99983H15.3214L14.8598 1.12327C14.762 0.935871 14.6114 0.778234 14.4249 0.668095C14.2384 0.557955 14.0233 0.499683 13.804 0.499833H8.19107C7.97224 0.49903 7.7576 0.557085 7.57173 0.667347C7.38587 0.777609 7.23631 0.935618 7.14018 1.12327L6.67857 1.99983H0.785714C0.57733 1.99983 0.37748 2.07885 0.23013 2.2195C0.0827804 2.36016 0 2.55092 0 2.74983L0 4.24983C0 4.44875 0.0827804 4.63951 0.23013 4.78016C0.37748 4.92082 0.57733 4.99983 0.785714 4.99983H21.2143C21.4227 4.99983 21.6225 4.92082 21.7699 4.78016C21.9172 4.63951 22 4.44875 22 4.24983V2.74983C22 2.55092 21.9172 2.36016 21.7699 2.2195C21.6225 2.07885 21.4227 1.99983 21.2143 1.99983V1.99983ZM2.6125 22.3905C2.64997 22.9617 2.9141 23.4978 3.3511 23.8897C3.7881 24.2816 4.36513 24.4998 4.96473 24.4998H17.0353C17.6349 24.4998 18.2119 24.2816 18.6489 23.8897C19.0859 23.4978 19.35 22.9617 19.3875 22.3905L20.4286 6.49983H1.57143L2.6125 22.3905Z" fill="black"/>
</svg>
